<svg xmlns="http://www.w3.org/2000/svg" width="21.414" height="21.414" viewBox="0 0 21.414 21.414">
  <path id="Icon_awesome-line" data-name="Icon awesome-line" d="M13.006,10.481v3.4a.151.151,0,0,1-.153.153h-.545a.158.158,0,0,1-.124-.062l-1.558-2.1v2.017a.151.151,0,0,1-.153.153H9.928a.151.151,0,0,1-.153-.153v-3.4a.151.151,0,0,1,.153-.153h.54a.144.144,0,0,1,.124.067l1.558,2.1V10.486a.151.151,0,0,1,.153-.153h.545a.151.151,0,0,1,.158.148Zm-3.92-.153H8.542a.151.151,0,0,0-.153.153v3.4a.151.151,0,0,0,.153.153h.545a.151.151,0,0,0,.153-.153v-3.4a.154.154,0,0,0-.153-.153ZM7.772,13.177H6.286v-2.7a.151.151,0,0,0-.153-.153H5.588a.151.151,0,0,0-.153.153v3.4a.141.141,0,0,0,.043.105.161.161,0,0,0,.105.043H7.767a.151.151,0,0,0,.153-.153V13.33a.153.153,0,0,0-.148-.153Zm8.1-2.849H13.69a.154.154,0,0,0-.153.153v3.4a.154.154,0,0,0,.153.153h2.184a.151.151,0,0,0,.153-.153v-.545a.151.151,0,0,0-.153-.153H14.388v-.574h1.487a.151.151,0,0,0,.153-.153v-.55a.151.151,0,0,0-.153-.153H14.388v-.574h1.487a.151.151,0,0,0,.153-.153v-.545A.161.161,0,0,0,15.874,10.328Zm5.54-4.173V19.793a3.893,3.893,0,0,1-3.905,3.872H3.872A3.9,3.9,0,0,1,0,19.759V6.122A3.9,3.9,0,0,1,3.905,2.25H17.543A3.893,3.893,0,0,1,21.414,6.155Zm-2.944,5.86c0-3.489-3.5-6.329-7.8-6.329s-7.8,2.839-7.8,6.329c0,3.126,2.772,5.746,6.52,6.243.913.2.808.531.6,1.759-.033.2-.158.77.674.421A25.2,25.2,0,0,0,16.8,15.911,5.647,5.647,0,0,0,18.47,12.015Z" transform="translate(0 -2.25)" fill="#fff"/>
</svg>
