<svg xmlns="http://www.w3.org/2000/svg" width="31.07" height="25.235" viewBox="0 0 31.07 25.235">
  <path id="Icon_awesome-twitter" data-name="Icon awesome-twitter" d="M27.877,9.67c.02.276.02.552.02.828,0,8.418-6.407,18.118-18.118,18.118A18,18,0,0,1,0,25.757a13.173,13.173,0,0,0,1.538.079,12.753,12.753,0,0,0,7.906-2.721A6.379,6.379,0,0,1,3.489,18.7a8.03,8.03,0,0,0,1.2.1,6.735,6.735,0,0,0,1.676-.217,6.369,6.369,0,0,1-5.106-6.25v-.079a6.413,6.413,0,0,0,2.878.808A6.377,6.377,0,0,1,2.169,4.544,18.1,18.1,0,0,0,15.3,11.207a7.189,7.189,0,0,1-.158-1.459A6.374,6.374,0,0,1,26.161,5.392,12.537,12.537,0,0,0,30.2,3.854a6.351,6.351,0,0,1-2.8,3.509,12.766,12.766,0,0,0,3.667-.986A13.688,13.688,0,0,1,27.877,9.67Z" transform="translate(0 -3.381)" fill="#fff"/>
</svg>
